<?xml version="1.0" encoding="iso-8859-1"?>
<!-- Generator: Adobe Illustrator 19.0.0, SVG Export Plug-In . SVG Version: 6.00 Build 0)  -->
<svg version="1.1" id="Layer_1" xmlns="http://www.w3.org/2000/svg" xmlns:xlink="http://www.w3.org/1999/xlink" x="0px" y="0px"
	 viewBox="0 0 508 508" style="enable-background:new 0 0 508 508;" xml:space="preserve">
<circle style="fill:#FD8469;" cx="254" cy="254" r="254"/>
<path style="fill:#E6E9EE;" d="M366,401.2v18.4c0,7.2-6,13.2-13.2,13.2H123.6c-7.2,0-13.2-6-13.2-13.2V120c0-7.2,6-13.2,13.2-13.2
	H142V388c0,7.2,6,13.2,13.2,13.2H366z"/>
<path style="fill:#FFFFFF;" d="M336.8,75.2h-182c-7.2,0-13.2,6-13.2,13.2V388c0,7.2,6,13.2,13.2,13.2h229.6c7.2,0,13.2-6,13.2-13.2
	V136H350c-7.2,0-13.2-6-13.2-13.2V75.2z"/>
<g>
	<path style="fill:#E6E9EE;" d="M336.8,75.2v47.6c0,7.2,6,13.2,13.2,13.2h47.6L336.8,75.2z"/>
	<rect x="162.4" y="322.8" style="fill:#E6E9EE;" width="214.4" height="12"/>
	<rect x="162.4" y="353.2" style="fill:#E6E9EE;" width="120.8" height="12"/>
</g>
<path style="fill:#4CDBC4;" d="M302,207.6c0-17.6-14.4-32-32-32c-6.8,0-12.8-5.6-12.8-12.8c0-6.8,5.6-12.8,12.8-12.8
	c3.6,0,6.8,1.6,9.2,4c3.6,4,10,4,13.6,0.4c4-3.6,4-10,0.4-13.6c-3.6-4-8.4-6.8-13.6-8.4v-5.6c0-5.2-4.4-9.6-9.6-9.6
	s-9.6,4.4-9.6,9.6v5.6c-12.8,4-22.4,16.4-22.4,30.4c0,17.6,14.4,32,32,32c6.8,0,12.8,5.6,12.8,12.8c0,6.8-5.6,12.8-12.8,12.8
	c-3.6,0-6.8-1.6-9.2-4c-3.6-4-10-4-13.6-0.4c-4,3.6-4,10-0.4,13.6c3.6,4,8.4,6.8,13.6,8.4v5.6c0,5.2,4.4,9.6,9.6,9.6
	s9.6-4.4,9.6-9.6V238C292.4,234.4,302,222,302,207.6z"/>
<rect x="162.4" y="292" style="fill:#E6E9EE;" width="214.4" height="12"/>
<g>
</g>
<g>
</g>
<g>
</g>
<g>
</g>
<g>
</g>
<g>
</g>
<g>
</g>
<g>
</g>
<g>
</g>
<g>
</g>
<g>
</g>
<g>
</g>
<g>
</g>
<g>
</g>
<g>
</g>
</svg>
