<svg xmlns="http://www.w3.org/2000/svg" viewBox="0 0 64 64"><defs><style>.cls-1{fill:#01c5de;}</style></defs><title>TomooIssuer</title><g id="Layer_2" data-name="Layer 2"><g id="Layer_1-2" data-name="Layer 1"><path class="cls-1" d="M39.88,41.33a1.45,1.45,0,0,1-1-.42,9.71,9.71,0,0,0-13.7,0,1.46,1.46,0,0,1-2,0,1.44,1.44,0,0,1-.43-1,1.42,1.42,0,0,1,.43-1,9.72,9.72,0,0,0,0-13.69,1.45,1.45,0,0,1-.43-1,1.45,1.45,0,0,1,2.48-1,9.73,9.73,0,0,0,13.7,0,1.42,1.42,0,0,1,1-.43,1.44,1.44,0,0,1,1,.43,1.46,1.46,0,0,1,0,2.06,9.71,9.71,0,0,0,0,13.69,1.45,1.45,0,0,1,.42,1,1.45,1.45,0,0,1-1.45,1.45ZM32,35.17a12.92,12.92,0,0,1,3.56.5l.11-.11a12.68,12.68,0,0,1,0-7.12l-.11-.11a12.68,12.68,0,0,1-7.12,0l-.11.11a12.68,12.68,0,0,1,0,7.12l.11.11A12.92,12.92,0,0,1,32,35.17Z"/><path class="cls-1" d="M32.26,56a23.94,23.94,0,1,1,19.8-37.4,1.46,1.46,0,0,1-2.42,1.65,21,21,0,1,0,3.13,16.36,1.46,1.46,0,1,1,2.86.63A23.95,23.95,0,0,1,32.26,56Zm15.13,4.1A32,32,0,0,0,40.93,1.29,32,32,0,0,0,2.36,20,32.11,32.11,0,0,0,1.27,41a1.47,1.47,0,0,0,2.82-.83A29.07,29.07,0,1,1,25.91,60.43a1.46,1.46,0,0,0-.62,2.86A31.65,31.65,0,0,0,32,64,32,32,0,0,0,47.39,60.05Z"/></g></g></svg>