<svg xmlns="http://www.w3.org/2000/svg" viewBox="0 0 2199.17 500"><defs><style>.cls-1{fill:#fff;}.cls-2{fill:#242828;}.cls-3{fill:#00e8b5;}</style></defs><title>Asset 63</title><g id="Layer_2" data-name="Layer 2"><g id="Layer_1-2" data-name="Layer 1"><circle class="cls-1" cx="250" cy="250" r="250"/><path class="cls-2" d="M248.94,253l1.06.7,1.06-.7,105.79-70.53,2.39-1.59-2.39-1.6L251.06,108.71,250,108l-1.06.71L143.15,179.23l-2.39,1.6,2.39,1.59ZM250,147.73l49.65,33.1L250,213.93l-49.65-33.1Z"/><polygon class="cls-2" points="359.24 210.27 250 283.11 140.76 210.27 140.76 250 250 322.82 359.24 250 359.24 210.27"/><polygon class="cls-2" points="250 352.28 250 392 140.76 319.18 140.76 279.45 250 352.28"/><polygon class="cls-3" points="359.24 279.45 359.24 319.18 250 392 250 352.28 359.24 279.45"/><path class="cls-1" d="M711.68,348V203.46H656.43V171.71h149.5v31.75H750.68V348Z"/><path class="cls-1" d="M828.18,342.09a55.3,55.3,0,0,1-22.75-22.25q-8-14.37-8-33.88t8-33.87A54.54,54.54,0,0,1,828.18,230q14.76-7.74,34.25-7.75T896.68,230a54.43,54.43,0,0,1,22.75,22.13q8,14.37,8,33.87t-8,33.88a55.19,55.19,0,0,1-22.75,22.25Q881.94,350,862.43,350T828.18,342.09ZM889.93,286q0-17.74-7.12-26.5t-20.38-8.75q-27.49,0-27.5,35.25t27.5,35.25Q889.94,321.21,889.93,286Z"/><path class="cls-1" d="M1132.93,235q10.24,12.75,10.25,39v74h-37.75V275.21q0-12.49-3.87-18t-13.13-5.5q-10.76,0-16.75,7.5t-6,21V348h-37.75V275.21q0-12.49-3.87-18t-13.13-5.5q-10.75,0-16.75,7.5t-6,21V348H950.43V225.21h36.75v16.5a38.42,38.42,0,0,1,15.38-14.5,47.32,47.32,0,0,1,22.12-5q27.25,0,36.5,22.75a43.91,43.91,0,0,1,16.75-16.62,47.17,47.17,0,0,1,23.75-6.13Q1122.68,222.21,1132.93,235Z"/><path class="cls-1" d="M1196.43,342.09a55.24,55.24,0,0,1-22.75-22.25q-8-14.37-8-33.88t8-33.87A54.49,54.49,0,0,1,1196.43,230q14.74-7.74,34.25-7.75t34.25,7.75a54.49,54.49,0,0,1,22.75,22.13q8,14.37,8,33.87t-8,33.88a55.24,55.24,0,0,1-22.75,22.25q-14.75,7.88-34.25,7.87T1196.43,342.09ZM1258.18,286q0-17.74-7.12-26.5t-20.38-8.75q-27.5,0-27.5,35.25t27.5,35.25Q1258.18,321.21,1258.18,286Z"/><path class="cls-1" d="M1474.68,348h-42.5l-30.5-56.25a23.9,23.9,0,0,0-9-9.37q-5.25-2.88-13.25-2.88h-19.25V348h-38.5V171.71h81q31,0,46.88,13.63t15.87,39.37q0,20-11.12,33.5T1422.93,276q13.74,3.51,23.25,19.75Zm-53.5-103.87q7.5-5.88,7.5-18.38,0-12.75-7.5-18.5t-24.25-5.75h-37.25V250h37.25Q1413.67,250,1421.18,244.09Z"/><path class="cls-1" d="M1604.43,293.71h-80q1.74,14.76,9.62,21.38t22.38,6.62a59.43,59.43,0,0,0,18.87-3.12,60.64,60.64,0,0,0,17.13-8.88l10,25.25a68.09,68.09,0,0,1-21.88,11,86.66,86.66,0,0,1-25.87,4q-31,0-48.88-17.12t-17.87-46.63q0-18.75,7.75-33.25a56.8,56.8,0,0,1,21.5-22.62q13.74-8.13,31.25-8.13,25.74,0,40.87,16.75t15.13,45.5Zm-72.13-38.62q-6.37,6.87-7.87,19.87h48.25q-.75-13.24-6.63-20t-16.62-6.75Q1538.68,248.21,1532.3,255.09Z"/><path class="cls-1" d="M1627.18,348V171.71h37.75V348Z"/><path class="cls-1" d="M1818.17,225.21V348h-37.5V329.71a38.33,38.33,0,0,1-15.62,14.88,48.08,48.08,0,0,1-22.88,5.37q-16,0-28.25-7.75t-19.12-22.12q-6.88-14.37-6.88-33.38t6.88-33.62a53.9,53.9,0,0,1,19.25-22.75,50.06,50.06,0,0,1,28.12-8.13,48.08,48.08,0,0,1,22.88,5.38,38.38,38.38,0,0,1,15.62,14.87V225.21Zm-44.62,87q7.13-9,7.12-26t-7.12-26.12q-7.12-9.12-20.38-9.13t-20.5,9.38q-7.25,9.38-7.25,26.37,0,16.76,7.25,25.63t20.5,8.87Q1766.43,321.21,1773.55,312.21Z"/><path class="cls-1" d="M1932.17,225.46h37l-74,167.5h-38.25l23.5-51.75-50.5-115.75h39.25l31,78Z"/><path class="cls-1" d="M2088.67,293.71h-80q1.75,14.76,9.63,21.38t22.37,6.62a59.44,59.44,0,0,0,18.88-3.12,60.45,60.45,0,0,0,17.12-8.88l10,25.25a68,68,0,0,1-21.87,11,86.72,86.72,0,0,1-25.88,4q-31,0-48.87-17.12t-17.88-46.63q0-18.75,7.75-33.25a56.93,56.93,0,0,1,21.5-22.62,60.25,60.25,0,0,1,31.25-8.13q25.76,0,40.88,16.75t15.12,45.5Zm-72.12-38.62q-6.37,6.87-7.88,19.87h48.25q-.75-13.24-6.62-20t-16.63-6.75Q2022.93,248.21,2016.55,255.09Z"/><path class="cls-1" d="M2199.17,253.21l-21.25,2.25q-15.75,1.5-22.25,8.88t-6.5,19.62v64h-37.75V225.21h36.25V246q9.26-21.24,38.25-23.25l11-.75Z"/></g></g></svg>