<?xml version="1.0" encoding="UTF-8"?>
<svg width="120px" height="33px" viewBox="0 0 120 33" version="1.1" xmlns="http://www.w3.org/2000/svg" xmlns:xlink="http://www.w3.org/1999/xlink">
    <!-- Generator: Sketch 55.2 (78181) - https://sketchapp.com -->
    <title>logo-tomorelayer</title>
    <desc>Created with Sketch.</desc>
    <defs>
        <polygon id="path-1" points="0 32.7545284 119.934566 32.7545284 119.934566 0.045646471 0 0.045646471"></polygon>
    </defs>
    <g id="Page-1" stroke="none" stroke-width="1" fill="none" fill-rule="evenodd">
        <g id="02.-log-in-2" transform="translate(-135.000000, -14.000000)">
            <g id="header">
                <g id="logo-tomorelayer" transform="translate(135.000000, 14.000000)">
                    <polygon id="Fill-1" fill="#FFFFFF" points="43.75598 20.7632155 43.75598 12.7262136 40.8310831 12.7262136 40.8310831 11.2572067 48.3871106 11.2572067 48.3871106 12.7262136 45.4556177 12.7262136 45.4556177 20.7632155"></polygon>
                    <g id="Group-23" transform="translate(0.000000, 0.029307)">
                        <path d="M53.0714728,17.1304535 C53.0714728,15.6284672 52.4193054,14.7522648 51.2862386,14.7522648 C50.1465759,14.7522648 49.4943335,15.6284672 49.4943335,17.1304535 C49.4943335,18.6390356 50.1465759,19.5086421 51.2862386,19.5086421 C52.4259013,19.5086421 53.0714728,18.6390356 53.0714728,17.1304535 M47.8210793,17.1304535 C47.8210793,14.8050319 49.1452017,13.3820462 51.2862386,13.3820462 C53.4337964,13.3820462 54.7513229,14.798436 54.7513229,17.1304535 C54.7513229,19.4690668 53.4403923,20.8788607 51.2862386,20.8788607 C49.1254891,20.8788607 47.8210793,19.4690668 47.8210793,17.1304535" id="Fill-2" fill="#FFFFFF"></path>
                        <path d="M55.8586059,13.5269906 L57.4330718,13.5269906 L57.4330718,14.6930369 L57.5450518,14.6930369 C57.8546833,13.8695265 58.5925222,13.3820312 59.5477252,13.3820312 C60.5424285,13.3820312 61.2341711,13.8827183 61.5372067,14.6930369 L61.6491868,14.6930369 C62.0049144,13.9025059 62.8349457,13.3820312 63.8363198,13.3820312 C65.2790181,13.3820312 66.1485497,14.2845422 66.1485497,15.7800075 L66.1485497,20.7338863 L64.5213916,20.7338863 L64.5213916,16.1950231 C64.5213916,15.2661287 64.0800675,14.8050169 63.2038651,14.8050169 C62.3540462,14.8050169 61.7940712,15.4242049 61.7940712,16.2477152 L61.7940712,20.7338863 L60.2064884,20.7338863 L60.2064884,16.0764472 C60.2064884,15.2859163 59.7058014,14.8050169 58.9020787,14.8050169 C58.0918351,14.8050169 57.4923598,15.470376 57.4923598,16.3530993 L57.4923598,20.7338863 L55.8586059,20.7338863 L55.8586059,13.5269906 Z" id="Fill-4" fill="#FFFFFF"></path>
                        <path d="M72.4403123,17.1304535 C72.4403123,15.6284672 71.7881449,14.7522648 70.6550781,14.7522648 C69.5154154,14.7522648 68.863173,15.6284672 68.863173,17.1304535 C68.863173,18.6390356 69.5154154,19.5086421 70.6550781,19.5086421 C71.7947408,19.5086421 72.4403123,18.6390356 72.4403123,17.1304535 M67.1899188,17.1304535 C67.1899188,14.8050319 68.5140412,13.3820462 70.6550781,13.3820462 C72.8026359,13.3820462 74.1201624,14.798436 74.1201624,17.1304535 C74.1201624,19.4690668 72.8092317,20.8788607 70.6550781,20.8788607 C68.4943285,20.8788607 67.1899188,19.4690668 67.1899188,17.1304535" id="Fill-6" fill="#FFFFFF"></path>
                        <path d="M77.098351,15.8195003 L79.0614491,15.8195003 C80.1418239,15.8195003 80.7610868,15.2398126 80.7610868,14.2318426 C80.7610868,13.2437352 80.1023235,12.637664 79.0219488,12.637664 L77.098351,12.637664 L77.098351,15.8195003 Z M77.098351,20.7338788 L75.3987133,20.7338788 L75.3987133,11.2278701 L79.2591006,11.2278701 C81.255178,11.2278701 82.5068207,12.3741287 82.5068207,14.1989382 C82.5068207,15.4505809 81.8480575,16.4980512 80.7149906,16.906471 L82.7901437,20.7338788 L80.8467583,20.7338788 L78.9824485,17.1700062 L77.098351,17.1700062 L77.098351,20.7338788 Z" id="Fill-8" fill="#FFFFFF"></path>
                        <path d="M84.9250269,16.4321599 L88.3177064,16.4321599 C88.284727,15.3649769 87.6391555,14.6798301 86.657569,14.6798301 C85.6825784,14.6798301 84.9975066,15.3780937 84.9250269,16.4321599 L84.9250269,16.4321599 Z M89.8789806,18.7509856 C89.5693492,20.0619913 88.3769944,20.8788307 86.6773567,20.8788307 C84.5561074,20.8788307 83.2780812,19.4756327 83.2780812,17.156807 C83.2780812,14.8379063 84.5758951,13.3820912 86.6641649,13.3820912 C88.7195303,13.3820912 89.9514603,14.7457139 89.9514603,17.0184435 L89.9514603,17.5455141 L84.918431,17.5455141 L84.918431,17.6311106 C84.9579313,18.8300612 85.649674,19.5810918 86.7234528,19.5810918 C87.5337714,19.5810918 88.0936715,19.2846521 88.3308232,18.7509856 L89.8789806,18.7509856 Z" id="Fill-10" fill="#FFFFFF"></path>
                        <mask id="mask-2" fill="white">
                            <use xlink:href="#path-1"></use>
                        </mask>
                        <g id="Clip-13"></g>
                        <polygon id="Fill-12" fill="#FFFFFF" mask="url(#mask-2)" points="91.1179263 20.7339163 92.7516802 20.7339163 92.7516802 10.7404122 91.1179263 10.7404122"></polygon>
                        <path d="M98.4637701,18.0922523 L98.4637701,17.5191605 L96.8366121,17.6245447 C95.9209094,17.6838326 95.4927021,18.0131768 95.4927021,18.5995353 C95.4927021,19.2056065 96.0131768,19.5678551 96.7378239,19.5678551 C97.7259313,19.5678551 98.4637701,18.9288795 98.4637701,18.0922523 M93.8721399,18.6917277 C93.8721399,17.3873929 94.8537264,16.6363623 96.6060562,16.5309781 L98.4637701,16.4189981 L98.4637701,15.8129269 C98.4637701,15.1080675 97.9894666,14.7127645 97.1067433,14.7127645 C96.3557127,14.7127645 95.8419088,14.9762998 95.6903535,15.4637951 L94.148867,15.4637951 C94.2805597,14.1923648 95.4729894,13.3820462 97.1857439,13.3820462 C99.036862,13.3820462 100.077736,14.2845572 100.077736,15.8129269 L100.077736,20.7339013 L98.5032705,20.7339013 L98.5032705,19.7457939 L98.3912904,19.7457939 C97.9894666,20.4440575 97.1989357,20.8524772 96.2569244,20.8524772 C94.8669182,20.8524772 93.8721399,20.0092542 93.8721399,18.6917277" id="Fill-14" fill="#FFFFFF" mask="url(#mask-2)"></path>
                        <path d="M101.422149,23.3228732 L101.422149,21.985559 C101.514341,22.0053467 101.758089,22.0119425 101.870144,22.0119425 C102.561811,22.0119425 102.950518,21.7484072 103.161287,21.0830481 L103.246958,20.7668207 L100.671118,13.5270206 L102.463023,13.5270206 L104.149469,19.1528545 L104.261449,19.1528545 L105.941299,13.5270206 L107.667245,13.5270206 L105.065172,20.9644722 C104.452505,22.7563023 103.681686,23.3492567 102.06772,23.3492567 C101.968932,23.3492567 101.527533,23.3426608 101.422149,23.3228732" id="Fill-15" fill="#FFFFFF" mask="url(#mask-2)"></path>
                        <path d="M109.538721,16.4321599 L112.9314,16.4321599 C112.898421,15.3649769 112.252849,14.6798301 111.271263,14.6798301 C110.296272,14.6798301 109.6112,15.3780937 109.538721,16.4321599 L109.538721,16.4321599 Z M114.492675,18.7509856 C114.183043,20.0619913 112.990688,20.8788307 111.291051,20.8788307 C109.169801,20.8788307 107.891775,19.4756327 107.891775,17.156807 C107.891775,14.8379063 109.189589,13.3820912 111.277859,13.3820912 C113.333224,13.3820912 114.565154,14.7457139 114.565154,17.0184435 L114.565154,17.5455141 L109.532125,17.5455141 L109.532125,17.6311106 C109.571625,18.8300612 110.263368,19.5810918 111.337147,19.5810918 C112.147465,19.5810918 112.707365,19.2846521 112.944517,18.7509856 L114.492675,18.7509856 Z" id="Fill-16" fill="#FFFFFF" mask="url(#mask-2)"></path>
                        <path d="M115.665774,13.5269906 L117.24024,13.5269906 L117.24024,14.6468657 L117.35222,14.6468657 C117.549871,13.9354104 118.32721,13.4084147 119.25603,13.4084147 C119.493182,13.4084147 119.783101,13.4347983 119.934581,13.4808944 L119.934581,14.9960725 C119.809409,14.9499013 119.374606,14.9038051 119.097954,14.9038051 C118.037367,14.9038051 117.299528,15.5625684 117.299528,16.5704635 L117.299528,20.7338863 L115.665774,20.7338863 L115.665774,13.5269906 Z" id="Fill-17" fill="#FFFFFF" mask="url(#mask-2)"></path>
                        <path d="M28.4625759,18.9782586 C28.5542436,18.5517002 28.2260987,18.1494266 27.7897964,18.1494266 L27.5831505,18.1494266 C27.2664735,18.1494266 26.9880974,18.3670156 26.9203398,18.6763473 C25.9017264,23.3268907 21.8295215,26.8761474 16.9271355,27.0755978 C9.37665459,27.3826808 3.44958401,19.8072405 6.71859088,11.9213442 C7.71014616,9.5294391 9.62122673,7.62105684 12.0139563,6.63137539 C17.4241499,4.39342411 22.6865359,6.48296814 25.3563673,10.4540612 C25.5617389,10.7595703 25.9730069,10.8455415 26.284737,10.6499138 L26.406386,10.5736864 C26.7594903,10.35205 26.8610518,9.88081949 26.6268982,9.53581012 C23.6908332,5.21026359 18.0643998,2.8521624 12.1713579,4.88878951 C8.8435128,6.03894566 6.22060212,8.6099138 5.03019613,11.9235928 C1.93223235,20.547253 8.27911555,28.652837 16.4836377,28.652837 C22.3555428,28.652837 27.2753179,24.5005821 28.4625759,18.9782586" id="Fill-18" fill="#9560DB" mask="url(#mask-2)"></path>
                        <path d="M15.6036802,0.0625783885 C7.19401124,0.440717052 0.387290443,7.25635728 0.0161973766,15.6662511 C-0.0655765147,17.520817 0.164604622,19.311223 0.656896939,20.9908482 C0.790313554,21.4458888 1.30621611,21.6681249 1.73457339,21.4647021 C1.73944535,21.4623785 1.74424235,21.4601299 1.74903935,21.4578064 C2.09592255,21.2931343 2.2681649,20.9019538 2.16038226,20.5334091 C1.72348032,19.0392929 1.51383635,17.4493117 1.5803198,15.8011668 C1.88807745,8.1692867 8.06136914,1.96324047 15.6921249,1.62849969 C24.1451918,1.25755653 31.1405696,8.02725047 31.1405696,16.4001174 C31.1405696,24.5532217 24.5075153,31.1862761 16.354411,31.1862761 C15.2585959,31.1862761 14.1907383,31.0656015 13.162381,30.8381187 C12.8849044,30.776732 12.5971593,30.8826408 12.4207945,31.1054766 C12.0565222,31.565614 12.2950981,32.2544335 12.8684147,32.3796052 C14.1772467,32.6653267 15.5440175,32.7940962 16.9481899,32.7438776 C25.426441,32.4405422 32.3296265,25.5922973 32.6933741,17.1165197 C33.1051668,7.52266583 25.2015066,-0.369001874 15.6036802,0.0625783885" id="Fill-19" fill="#9560DB" mask="url(#mask-2)"></path>
                        <path d="M16.3544185,11.0899113 L20.4347183,13.1300612 L16.3544185,15.1702111 L12.2741187,13.1300612 L16.3544185,11.0899113 Z M10.3668607,13.7658139 L16.0365422,16.6006921 C16.1346558,16.6497864 16.2446121,16.6756452 16.3544185,16.6756452 C16.4642249,16.6756452 16.5741062,16.6497114 16.6722199,16.6006171 L22.3419763,13.7658139 C22.5842998,13.6445397 22.7348057,13.4009419 22.7348057,13.1300612 C22.7348057,12.8591056 22.5842998,12.6155078 22.3419013,12.4943086 L16.6722199,9.65943036 C16.5740312,9.61041099 16.464075,9.5844772 16.3544185,9.5844772 C16.2446121,9.5844772 16.1347308,9.61041099 16.0365422,9.65950531 L10.3667858,12.4943086 C10.1244622,12.6155078 9.97395628,12.8591056 9.97395628,13.1300612 C9.97395628,13.4010918 10.1244622,13.6446896 10.3668607,13.7658139 L10.3668607,13.7658139 Z" id="Fill-20" fill="#9560DB" mask="url(#mask-2)"></path>
                        <path d="M22.0236652,18.9592655 C21.9143086,18.9592655 21.8045022,18.9852742 21.7062386,19.0344435 L16.3544335,21.7102711 L11.0025534,19.0343685 C10.9028657,18.9845247 10.7961324,18.9592655 10.6852017,18.9592655 C10.4139463,18.9592655 10.1701986,19.1098463 10.0489994,19.3522448 C9.87368395,19.7027258 10.0163198,20.1305584 10.3668757,20.3058738 L16.0365572,23.1406771 C16.1348207,23.1897714 16.2447021,23.2157801 16.3544335,23.2157801 C16.464015,23.2157801 16.5738963,23.1898463 16.6723098,23.140752 L22.3419163,20.3058738 C22.5117601,20.2210269 22.638356,20.0750931 22.6983935,19.8949057 C22.758431,19.7147933 22.7447895,19.5220887 22.6597926,19.3522448 C22.5385934,19.1098463 22.2948457,18.9592655 22.0236652,18.9592655" id="Fill-21" fill="#9560DB" mask="url(#mask-2)"></path>
                        <path d="M22.6598151,16.0822036 C22.5386159,15.8398051 22.2947933,15.6892242 22.0236877,15.6892242 C21.914331,15.6892242 21.8045247,15.715233 21.7061861,15.7644022 L16.354381,18.4402299 L11.0025759,15.7644022 C10.9028882,15.7145584 10.79608,15.6892242 10.6851493,15.6892242 C10.4139688,15.6892242 10.1702211,15.8398051 10.0489469,16.0822036 C9.87370643,16.4328345 10.0162673,16.8605921 10.3668232,17.0358326 L16.0365796,19.8706359 C16.1347683,19.9197302 16.2447245,19.9457389 16.354381,19.9457389 C16.4641124,19.9457389 16.5739938,19.9197302 16.6722573,19.8706359 L22.3418638,17.0358326 C22.5117077,16.9509856 22.6383036,16.8050518 22.698416,16.6248645 C22.7584535,16.444752 22.744737,16.2520475 22.6598151,16.0822036" id="Fill-22" fill="#9560DB" mask="url(#mask-2)"></path>
                    </g>
                </g>
            </g>
        </g>
    </g>
</svg>