<svg xmlns="http://www.w3.org/2000/svg" viewBox="0 0 2225.16 500"><defs><style>.cls-1{fill:#fff;}.cls-2{fill:#00e8b5;}</style></defs><title>Asset 49</title><g id="Layer_2" data-name="Layer 2"><g id="Layer_1-2" data-name="Layer 1"><path class="cls-1" d="M618.67,357V201H559V166.69H720.46V201H660.79V357Z"/><path class="cls-1" d="M744.49,350.7a59.64,59.64,0,0,1-24.57-24q-8.64-15.53-8.64-36.59t8.64-36.58a58.86,58.86,0,0,1,24.57-23.9q15.93-8.35,37-8.37t37,8.37A58.86,58.86,0,0,1,843,253.5q8.64,15.53,8.64,36.58T843,326.67a59.64,59.64,0,0,1-24.57,24q-15.93,8.51-37,8.5T744.49,350.7Zm66.69-60.62q0-19.15-7.69-28.62t-22-9.45q-29.7,0-29.7,38.07t29.7,38.07Q811.18,328.15,811.18,290.08Z"/><path class="cls-1" d="M1073.62,235q11.07,13.77,11.07,42.12V357h-40.77V278.47q0-13.49-4.18-19.44t-14.18-5.94q-11.61,0-18.09,8.1T1001,283.87V357H960.22V278.47Q960.22,265,956,259t-14.18-5.94q-11.61,0-18.09,8.1t-6.48,22.68V357H876.52V224.47h39.69v17.82a41.54,41.54,0,0,1,16.61-15.66,51.16,51.16,0,0,1,23.89-5.4q29.43,0,39.42,24.57a47.48,47.48,0,0,1,18.09-18,50.9,50.9,0,0,1,25.65-6.62Q1062.55,221.23,1073.62,235Z"/><path class="cls-1" d="M1142.2,350.7a59.64,59.64,0,0,1-24.57-24q-8.64-15.53-8.64-36.59t8.64-36.58a58.86,58.86,0,0,1,24.57-23.9q15.93-8.35,37-8.37t37,8.37a58.86,58.86,0,0,1,24.57,23.9q8.64,15.53,8.64,36.58t-8.64,36.59a59.64,59.64,0,0,1-24.57,24q-15.93,8.51-37,8.5T1142.2,350.7Zm66.69-60.62q0-19.15-7.7-28.62t-22-9.45q-29.7,0-29.7,38.07t29.7,38.07Q1208.89,328.15,1208.89,290.08Z"/><path class="cls-1" d="M1442.71,357h-45.9l-32.94-60.75a25.83,25.83,0,0,0-9.72-10.12q-5.67-3.1-14.31-3.11h-20.79v74h-41.58V166.69H1365q33.48,0,50.62,14.72t17.15,42.52q0,21.62-12,36.18t-33.88,19.17q14.85,3.8,25.11,21.33Zm-57.78-112.18q8.1-6.35,8.1-19.85,0-13.77-8.1-20t-26.19-6.21h-40.23V251.2h40.23Q1376.83,251.2,1384.93,244.86Z"/><path class="cls-1" d="M1582.84,298.45h-86.41q1.89,15.94,10.4,23.09t24.17,7.15a64.11,64.11,0,0,0,20.38-3.37,65.59,65.59,0,0,0,18.5-9.59l10.8,27.27a73.51,73.51,0,0,1-23.63,11.88,93.75,93.75,0,0,1-28,4.32q-33.48,0-52.78-18.49T1457,290.35q0-20.25,8.38-35.91A61.32,61.32,0,0,1,1488.6,230q14.85-8.77,33.75-8.78,27.81,0,44.15,18.09t16.34,49.14Zm-77.9-41.71q-6.89,7.42-8.51,21.46h52.12q-.81-14.29-7.16-21.6t-18-7.29Q1511.82,249.31,1504.94,256.74Z"/><path class="cls-1" d="M1607.4,357V166.69h40.77V357Z"/><path class="cls-1" d="M1813.68,224.47V357h-40.5V337.33a41.45,41.45,0,0,1-16.87,16.07,51.88,51.88,0,0,1-24.71,5.8q-17.28,0-30.51-8.37t-20.65-23.89q-7.44-15.53-7.43-36.05t7.43-36.31q7.43-15.79,20.79-24.57a54.09,54.09,0,0,1,30.37-8.78,51.89,51.89,0,0,1,24.71,5.81,41.56,41.56,0,0,1,16.87,16.06V224.47Zm-48.19,94q7.69-9.72,7.69-28.08t-7.69-28.21q-7.7-9.85-22-9.86t-22.14,10.13q-7.83,10.13-7.83,28.48,0,18.11,7.83,27.68t22.14,9.58Q1757.79,328.15,1765.49,318.43Z"/><path class="cls-1" d="M1936.8,224.74h40l-79.92,180.9h-41.31l25.38-55.89-54.54-125h42.39L1902.24,309Z"/><path class="cls-1" d="M2105.82,298.45h-86.4q1.89,15.94,10.39,23.09t24.17,7.15a64.06,64.06,0,0,0,20.38-3.37,65.46,65.46,0,0,0,18.5-9.59l10.8,27.27A73.51,73.51,0,0,1,2080,354.88a93.69,93.69,0,0,1-27.94,4.32q-33.48,0-52.78-18.49T1980,290.35q0-20.25,8.37-35.91A61.41,61.41,0,0,1,2011.59,230q14.85-8.77,33.75-8.78,27.81,0,44.14,18.09t16.34,49.14Zm-77.89-41.71q-6.9,7.42-8.51,21.46h52.11q-.81-14.29-7.16-21.6t-17.95-7.29Q2034.81,249.31,2027.93,256.74Z"/><path class="cls-1" d="M2225.16,254.71l-22.95,2.43q-17,1.62-24,9.59t-7,21.19V357h-40.77V224.47h39.15v22.41q10-22.93,41.31-25.11l11.88-.81Z"/><path class="cls-1" d="M190.46,255.19l1.87,1.24,1.86-1.24L380.45,131l4.2-2.8-4.2-2.81L194.19,1.25,192.33,0l-1.87,1.25L4.21,125.41,0,128.22,4.21,131Zm1.87-185.25,87.41,58.28L192.33,186.5l-87.42-58.28Z"/><polygon class="cls-1" points="384.65 180.06 192.33 308.28 0 180.06 0 250 192.33 378.21 384.65 250.01 384.65 180.06"/><polygon class="cls-1" points="192.33 430.07 192.33 500 0.01 371.8 0.01 301.85 192.33 430.07"/><polygon class="cls-2" points="384.65 301.85 384.65 371.8 192.33 500 192.33 430.07 384.65 301.85"/></g></g></svg>