<svg xmlns="http://www.w3.org/2000/svg" viewBox="0 0 64 64"><defs><style>.cls-1{fill:#9560db;}</style></defs><title>TomooRelayer</title><g id="Layer_2" data-name="Layer 2"><g id="Layer_1-2" data-name="Layer 1"><path class="cls-1" d="M32.26,56a23.94,23.94,0,1,1,19.8-37.4,1.46,1.46,0,0,1-2.42,1.65,21,21,0,1,0,3.13,16.36,1.46,1.46,0,1,1,2.86.63A23.95,23.95,0,0,1,32.26,56Zm15.13,4.1A32,32,0,0,0,40.93,1.29,32,32,0,0,0,2.36,20,32.11,32.11,0,0,0,1.27,41a1.47,1.47,0,0,0,2.82-.83A29.07,29.07,0,1,1,25.91,60.43a1.46,1.46,0,0,0-.62,2.86A31.65,31.65,0,0,0,32,64,32,32,0,0,0,47.39,60.05Z"/><path class="cls-1" d="M21.7,27.11,31.42,32a1.29,1.29,0,0,0,1.17,0l9.72-4.86a1.31,1.31,0,0,0,0-2.34l-9.72-4.86a1.29,1.29,0,0,0-1.17,0L21.7,24.77a1.3,1.3,0,0,0,0,2.34Zm3.67-1.25L32,22.56h.09l6.58,3.3V26L32,29.32,25.37,26Z"/><path class="cls-1" d="M42.93,37.46a1.36,1.36,0,0,0-1.21-.75,1.43,1.43,0,0,0-.61.14L32,41.39l-9.07-4.54a1.4,1.4,0,0,0-.61-.14,1.35,1.35,0,0,0-.6,2.56l9.72,4.86a1.31,1.31,0,0,0,.61.15,1.27,1.27,0,0,0,.6-.15l9.72-4.86a1.35,1.35,0,0,0,.61-1.81Z"/><path class="cls-1" d="M21.67,33.21l9.72,4.86a1.31,1.31,0,0,0,.61.15,1.27,1.27,0,0,0,.6-.15l9.72-4.86a1.35,1.35,0,0,0,.61-1.81,1.34,1.34,0,0,0-1.21-.75,1.43,1.43,0,0,0-.61.14L32,35.33l-9.07-4.54a1.4,1.4,0,0,0-.61-.14,1.34,1.34,0,0,0-1.21.75A1.35,1.35,0,0,0,21.67,33.21Z"/></g></g></svg>