<?xml version="1.0" encoding="UTF-8"?>
<svg width="270px" height="270px" viewBox="0 0 270 270" version="1.1" xmlns="http://www.w3.org/2000/svg" xmlns:xlink="http://www.w3.org/1999/xlink">
    <!-- Generator: Sketch 55.1 (78136) - https://sketchapp.com -->
    <title>Resign icon</title>
    <desc>Created with Sketch.</desc>
    <defs>
        <polygon id="path-1" points="0.0960794241 0.195152069 66.2838373 0.195152069 66.2838373 36.9439018 0.0960794241 36.9439018"></polygon>
        <polygon id="path-3" points="0 0.105325809 97.7932356 0.105325809 97.7932356 148.475606 0 148.475606"></polygon>
    </defs>
    <g id="Page-1" stroke="none" stroke-width="1" fill="none" fill-rule="evenodd">
        <g id="31.-Resign-1" transform="translate(-435.000000, -485.000000)">
            <g id="Resign-icon" transform="translate(435.000000, 485.000000)">
                <rect id="Rectangle" fill="#1D1E31" x="0" y="0" width="270" height="270"></rect>
                <g id="Group-7" transform="translate(78.000000, 60.000000)">
                    <g id="Group-3" transform="translate(76.501241, 46.423076)">
                        <mask id="mask-2" fill="white">
                            <use xlink:href="#path-1"></use>
                        </mask>
                        <g id="Clip-2"></g>
                        <path d="M65.5880469,20.5099342 C65.6182754,20.4731857 65.6446513,20.4337701 65.6733981,20.3958362 C65.7015522,20.3576059 65.7317807,20.3205611 65.758453,20.2811454 C66.099858,19.7785214 66.2838966,19.1866935 66.2838966,18.5661188 C66.2838966,17.7481694 65.9653112,16.9791191 65.3868195,16.4006273 L50.0790141,1.09252559 C49.5008187,0.51403381 48.7317684,0.195152069 47.9138189,0.195152069 C47.0958695,0.195152069 46.3262265,0.51403381 45.7474384,1.09311831 C44.5531136,2.28744304 44.5531136,4.23007298 45.7474384,5.42439771 L55.8369633,15.5139227 L3.15746268,15.5139227 C1.46940469,15.5139227 0.0960794241,16.8869516 0.0960794241,18.5753059 C0.0960794241,20.2633639 1.46940469,21.6366892 3.15746268,21.6366892 L55.825109,21.6366892 L45.7474384,31.7134707 C44.5531136,32.9074991 44.55341,34.8513145 45.7504019,36.0488992 C46.3247447,36.6259091 47.0917205,36.9439018 47.910559,36.9439018 C48.7291012,36.9439018 49.4981515,36.6238346 50.0796068,36.0385266 L65.3586654,20.7600608 C65.4395713,20.6806367 65.5163281,20.5976563 65.5880469,20.5099342" id="Fill-1" fill="#703DB5" mask="url(#mask-2)"></path>
                    </g>
                    <g id="Group-6" transform="translate(0.000000, 0.191151)">
                        <mask id="mask-4" fill="white">
                            <use xlink:href="#path-3"></use>
                        </mask>
                        <g id="Clip-5"></g>
                        <path d="M53.7377672,137.511349 C53.7377672,140.180947 51.5663485,142.352958 48.8973439,142.352958 C48.322112,142.352958 47.8011138,142.278572 47.3346455,142.127726 L9.44402652,129.501372 C7.48835682,128.82034 6.12273687,126.914755 6.12273687,124.867807 L6.12273687,11.069701 C6.12273687,8.40010373 8.29474828,6.22809232 10.964642,6.22809232 C11.5389847,6.22809232 12.0593902,6.3024783 12.5258585,6.45302841 L50.4164775,19.0796785 C52.3721472,19.7607103 53.7377672,21.665999 53.7377672,23.7132435 L53.7377672,137.511349 Z M94.7318524,82.2923527 C93.0437944,82.2923527 91.6704691,83.665678 91.6704691,85.353736 L91.6704691,113.803262 C91.6704691,119.087334 87.3717891,123.386607 82.0883099,123.386607 L59.8605337,123.386607 L59.8605337,23.7132435 C59.8605337,19.0331502 56.8530877,14.8381957 52.3991159,13.2829063 L31.2243014,6.22809232 L82.0883099,6.22809232 C87.3717891,6.22809232 91.6704691,10.527365 91.6704691,15.811437 L91.6704691,44.2609634 C91.6704691,45.9490214 93.0437944,47.3223467 94.7318524,47.3223467 C96.4199104,47.3223467 97.7932356,45.9490214 97.7932356,44.2609634 L97.7932356,15.811437 C97.7932356,7.15095267 90.7482015,0.105325809 82.0883099,0.105325809 L10.964642,0.105325809 C4.91892866,0.105325809 -2.96358495e-05,5.02369139 -2.96358495e-05,11.069701 L-2.96358495e-05,124.867807 C-2.96358495e-05,129.547307 3.00771273,133.741966 7.46138819,135.297848 L45.4915921,147.968062 C46.5970092,148.309764 47.7113172,148.475725 48.8973439,148.475725 C54.9421681,148.475725 59.8605337,143.556766 59.8605337,137.511349 L59.8605337,129.509374 L82.0883099,129.509374 C90.7482015,129.509374 97.7932356,122.463747 97.7932356,113.803262 L97.7932356,85.353736 C97.7932356,83.665678 96.4199104,82.2923527 94.7318524,82.2923527 L94.7318524,82.2923527 Z" id="Fill-4" fill="#CFCDE1" mask="url(#mask-4)"></path>
                    </g>
                </g>
            </g>
        </g>
    </g>
</svg>