<?xml version="1.0" encoding="UTF-8"?>
<svg width="270px" height="270px" viewBox="0 0 270 270" version="1.1" xmlns="http://www.w3.org/2000/svg" xmlns:xlink="http://www.w3.org/1999/xlink">
    <!-- Generator: Sketch 55.1 (78136) - https://sketchapp.com -->
    <title>Transfer icon</title>
    <desc>Created with Sketch.</desc>
    <g id="Page-1" stroke="none" stroke-width="1" fill="none" fill-rule="evenodd">
        <g id="24.-Tranfer-1" transform="translate(-435.000000, -382.000000)">
            <g id="Transfer-icon" transform="translate(435.000000, 382.000000)">
                <rect id="Rectangle" fill="#1D1E31" x="0" y="0" width="270" height="270"></rect>
                <g id="transfer" transform="translate(55.000000, 55.000000)" fill-rule="nonzero">
                    <path d="M0,9.26488706 L0,50.6940452 C0,55.6221766 4.00821355,59.6632444 8.96919918,59.6632444 L34.825462,59.6632444 L34.825462,68.6324435 L26.1848049,68.6324435 C24.5420945,68.6324435 23.1950719,69.9794661 23.1950719,71.6221766 C23.1950719,73.2648871 24.5420945,74.6119097 26.1848049,74.6119097 L49.3798768,74.6119097 C51.0225873,74.6119097 52.3696099,73.2648871 52.3696099,71.6221766 C52.3696099,69.9794661 51.0225873,68.6324435 49.3798768,68.6324435 L40.7392197,68.6324435 L40.7392197,59.6632444 L66.5954825,59.6632444 C71.523614,59.6632444 75.5646817,55.6550308 75.5646817,50.6940452 L75.5646817,9.26488706 C75.5646817,4.33675565 71.5564682,0.295687885 66.5954825,0.295687885 L8.93634497,0.295687885 C4.00821355,0.295687885 0,4.33675565 0,9.26488706 Z M69.6180698,9.26488706 L69.6180698,50.6940452 C69.6180698,52.3367556 68.2710472,53.6837782 66.6283368,53.6837782 L8.93634497,53.6837782 C7.2936345,53.6837782 5.94661191,52.3367556 5.94661191,50.6940452 L5.94661191,9.26488706 C5.94661191,7.62217659 7.2936345,6.275154 8.93634497,6.275154 L66.5954825,6.275154 C68.2710472,6.275154 69.6180698,7.62217659 69.6180698,9.26488706 Z" id="Shape" fill="#CFCDE1"></path>
                    <path d="M151.852156,85.5523614 L94.1601643,85.5523614 C89.2320329,85.5523614 85.1909651,89.5605749 85.1909651,94.5215606 L85.1909651,135.917864 C85.1909651,140.845996 89.1991786,144.887064 94.1601643,144.887064 L120.016427,144.887064 L120.016427,153.856263 L111.37577,153.856263 C109.73306,153.856263 108.386037,155.203285 108.386037,156.845996 C108.386037,158.488706 109.73306,159.835729 111.37577,159.835729 L134.603696,159.835729 C136.246407,159.835729 137.593429,158.488706 137.593429,156.845996 C137.593429,155.203285 136.246407,153.856263 134.603696,153.856263 L125.963039,153.856263 L125.963039,144.887064 L151.819302,144.887064 C156.747433,144.887064 160.788501,140.87885 160.788501,135.917864 L160.788501,94.4887064 C160.788501,89.5605749 156.780287,85.5523614 151.852156,85.5523614 Z M154.841889,135.917864 C154.841889,137.560575 153.494867,138.907598 151.852156,138.907598 L94.1601643,138.907598 C92.5174538,138.907598 91.1704312,137.560575 91.1704312,135.917864 L91.1704312,94.4887064 C91.1704312,92.8459959 92.5174538,91.4989733 94.1601643,91.4989733 L151.819302,91.4989733 C153.462012,91.4989733 154.809035,92.8459959 154.809035,94.4887064 L154.809035,135.917864 L154.841889,135.917864 L154.841889,135.917864 Z" id="Shape" fill="#CFCDE1"></path>
                    <path d="M91.4332649,32.9527721 L120.016427,32.9527721 L120.016427,64.2628337 C120.016427,64.62423 120.082136,64.9856263 120.213552,65.3141684 L114.726899,59.8275154 C113.577002,58.6776181 111.671458,58.6776181 110.521561,59.8275154 C109.371663,60.9774127 109.371663,62.8829569 110.521561,64.0328542 L120.903491,74.4147844 C121.494867,75.0061602 122.250513,75.301848 123.00616,75.301848 C123.761807,75.301848 124.517454,75.0061602 125.10883,74.4147844 L135.49076,64.0328542 C136.640657,62.8829569 136.640657,60.9774127 135.49076,59.8275154 C134.340862,58.6776181 132.435318,58.6776181 131.285421,59.8275154 L125.798768,65.3141684 C125.930185,64.9856263 125.995893,64.62423 125.995893,64.2628337 L125.995893,29.9958932 C125.995893,28.3531828 124.648871,27.0061602 123.00616,27.0061602 L91.4332649,27.0061602 C89.7905544,27.0061602 88.4435318,28.3531828 88.4435318,29.9958932 C88.476386,31.6386037 89.7905544,32.9527721 91.4332649,32.9527721 Z" id="Path" fill="#703DB5"></path>
                    <path d="M34.7926078,131.876797 C34.7926078,133.519507 36.1396304,134.86653 37.7823409,134.86653 L69.3552361,134.86653 C70.9979466,134.86653 72.3449692,133.519507 72.3449692,131.876797 C72.3449692,130.234086 70.9979466,128.887064 69.3552361,128.887064 L40.7720739,128.887064 L40.7720739,97.5770021 C40.7720739,97.2156057 40.7063655,96.8542094 40.5749487,96.5256674 L46.0616016,102.01232 C46.6529774,102.603696 47.4086242,102.899384 48.164271,102.899384 C48.9199179,102.899384 49.6755647,102.603696 50.2669405,102.01232 C51.4168378,100.862423 51.4168378,98.9568789 50.2669405,97.8069815 L39.8850103,87.4250513 C38.7351129,86.275154 36.8295688,86.275154 35.6796715,87.4250513 L25.2977413,97.8069815 C24.1478439,98.9568789 24.1478439,100.862423 25.2977413,102.01232 C26.4476386,103.162218 28.3531828,103.162218 29.5030801,102.01232 L34.9897331,96.5256674 C34.8583162,96.8542094 34.7926078,97.2156057 34.7926078,97.5770021 L34.7926078,131.876797 L34.7926078,131.876797 Z" id="Path" fill="#703DB5"></path>
                </g>
            </g>
        </g>
    </g>
</svg>